<svg xmlns="http://www.w3.org/2000/svg" viewBox="0 0 1200 1500" width="1200" height="1500" role="img">
<defs>
<linearGradient id="practice-breath-bg" x1="0" y1="0" x2="0" y2="1">
<stop offset="0" stop-color="#FBF8F3"/><stop offset="1" stop-color="#F7E6D6"/>
</linearGradient>
<radialGradient id="practice-breath-glow" cx="0.5" cy="0.5" r="0.6">
<stop offset="0" stop-color="#F0C9A4" stop-opacity="0.55"/>
<stop offset="1" stop-color="#F0C9A4" stop-opacity="0"/>
</radialGradient>
<filter id="gpractice-breath-2" x="0" y="0" width="100%" height="100%">
<feTurbulence type="fractalNoise" baseFrequency="0.9" numOctaves="4" stitchTiles="stitch"/>
<feColorMatrix type="saturate" values="0"/>
<feComponentTransfer><feFuncA type="linear" slope="0.16"/></feComponentTransfer>
</filter>
</defs>
<rect width="1200" height="1500" fill="url(#practice-breath-bg)"/>
<rect width="1200" height="1500" fill="url(#practice-breath-glow)"/>
<ellipse cx="563" cy="777" rx="34" ry="11" fill="none" stroke="#E8A87C" stroke-opacity="0.720" stroke-width="5.0"/><ellipse cx="563" cy="777" rx="68" ry="23" fill="none" stroke="#E8A87C" stroke-opacity="0.686" stroke-width="2.4"/><ellipse cx="563" cy="777" rx="101" ry="34" fill="none" stroke="#E8A87C" stroke-opacity="0.653" stroke-width="2.4"/><ellipse cx="563" cy="777" rx="135" ry="46" fill="none" stroke="#E8A87C" stroke-opacity="0.620" stroke-width="2.4"/><ellipse cx="563" cy="777" rx="169" ry="57" fill="none" stroke="#E8A87C" stroke-opacity="0.587" stroke-width="5.0"/><ellipse cx="563" cy="777" rx="203" ry="69" fill="none" stroke="#E8A87C" stroke-opacity="0.555" stroke-width="2.4"/><ellipse cx="563" cy="777" rx="237" ry="80" fill="none" stroke="#E8A87C" stroke-opacity="0.523" stroke-width="2.4"/><ellipse cx="563" cy="777" rx="271" ry="92" fill="none" stroke="#E8A87C" stroke-opacity="0.492" stroke-width="2.4"/><ellipse cx="563" cy="777" rx="304" ry="103" fill="none" stroke="#E8A87C" stroke-opacity="0.460" stroke-width="5.0"/><ellipse cx="563" cy="777" rx="338" ry="115" fill="none" stroke="#E8A87C" stroke-opacity="0.430" stroke-width="2.4"/><ellipse cx="563" cy="777" rx="372" ry="126" fill="none" stroke="#E8A87C" stroke-opacity="0.400" stroke-width="2.4"/><ellipse cx="563" cy="777" rx="406" ry="138" fill="none" stroke="#E8A87C" stroke-opacity="0.370" stroke-width="2.4"/><ellipse cx="563" cy="777" rx="440" ry="149" fill="none" stroke="#E8A87C" stroke-opacity="0.341" stroke-width="5.0"/><ellipse cx="563" cy="777" rx="473" ry="161" fill="none" stroke="#E8A87C" stroke-opacity="0.312" stroke-width="2.4"/><ellipse cx="563" cy="777" rx="507" ry="172" fill="none" stroke="#E8A87C" stroke-opacity="0.284" stroke-width="2.4"/><ellipse cx="563" cy="777" rx="541" ry="184" fill="none" stroke="#E8A87C" stroke-opacity="0.257" stroke-width="2.4"/><ellipse cx="563" cy="777" rx="575" ry="195" fill="none" stroke="#E8A87C" stroke-opacity="0.230" stroke-width="5.0"/><ellipse cx="563" cy="777" rx="609" ry="207" fill="none" stroke="#E8A87C" stroke-opacity="0.205" stroke-width="2.4"/><ellipse cx="563" cy="777" rx="643" ry="218" fill="none" stroke="#E8A87C" stroke-opacity="0.180" stroke-width="2.4"/><ellipse cx="563" cy="777" rx="676" ry="230" fill="none" stroke="#E8A87C" stroke-opacity="0.157" stroke-width="2.4"/><ellipse cx="563" cy="777" rx="710" ry="241" fill="none" stroke="#E8A87C" stroke-opacity="0.135" stroke-width="5.0"/><ellipse cx="563" cy="777" rx="744" ry="253" fill="none" stroke="#E8A87C" stroke-opacity="0.115" stroke-width="2.4"/>
<rect width="1200" height="1500" filter="url(#gpractice-breath-2)" opacity="0.55" style="mix-blend-mode:multiply"/>
</svg>
