<svg xmlns="http://www.w3.org/2000/svg" viewBox="0 0 1600 1000" width="1600" height="1000" role="img">
<defs>
<linearGradient id="retreat-2-sky" x1="0" y1="0" x2="0" y2="1">
<stop offset="0" stop-color="#E9EDE2"/><stop offset="0.62" stop-color="#FBF8F3"/>
<stop offset="1" stop-color="#AFBFA2" stop-opacity="0.42"/>
</linearGradient>
<radialGradient id="retreat-2-sun" cx="0.350" cy="0.420" r="0.72">
<stop offset="0" stop-color="#7D9070" stop-opacity="0.92"/>
<stop offset="0.30" stop-color="#7D9070" stop-opacity="0.34"/>
<stop offset="1" stop-color="#7D9070" stop-opacity="0"/>
</radialGradient>
<linearGradient id="retreat-2-band" x1="0" y1="0" x2="1" y2="0">
<stop offset="0" stop-color="#7D9070" stop-opacity="0.7"/>
<stop offset="1" stop-color="#AFBFA2" stop-opacity="0.3"/>
</linearGradient>
<filter id="gretreat-2-1" x="0" y="0" width="100%" height="100%">
<feTurbulence type="fractalNoise" baseFrequency="0.9" numOctaves="4" stitchTiles="stitch"/>
<feColorMatrix type="saturate" values="0"/>
<feComponentTransfer><feFuncA type="linear" slope="0.16"/></feComponentTransfer>
</filter>
</defs>
<rect width="1600" height="1000" fill="url(#retreat-2-sky)"/>
<rect width="1600" height="1000" fill="url(#retreat-2-sun)"/>
<path d="M0 508 C 448 492 992 525 1600 502 L 1600 1000 L 0 1000 Z" fill="url(#retreat-2-band)" opacity="0.160"/><path d="M0 627 C 448 606 992 648 1600 619 L 1600 1000 L 0 1000 Z" fill="url(#retreat-2-band)" opacity="0.130"/><path d="M0 743 C 448 728 992 759 1600 737 L 1600 1000 L 0 1000 Z" fill="url(#retreat-2-band)" opacity="0.100"/><path d="M0 862 C 448 850 992 874 1600 857 L 1600 1000 L 0 1000 Z" fill="url(#retreat-2-band)" opacity="0.070"/>
<circle cx="560" cy="420" r="83" fill="#7D9070" opacity="0.30"/>
<circle cx="560" cy="420" r="48" fill="#FBF8F3" opacity="0.62"/>
<rect width="1600" height="1000" filter="url(#gretreat-2-1)" opacity="0.55" style="mix-blend-mode:multiply"/>
</svg>
